#tb 0: 1001/30000
0,          0,          0,        1,     3168, 920ea4b8a00d41489d122d641d6e4fe5
0,          1,          1,        1,     3168, 8bfc8d452a79f2978b8e973b77cbf8a8
0,          2,          2,        1,     3168, 09f3f0d31d3377a844fa5385d9b36b9f
0,          3,          3,        1,     3168, df43fae763da9360c8062bb92ee091a8
0,          4,          4,        1,     3168, 445d8c675bb865d1814fcfa6b8a9afd3
0,          5,          5,        1,     3168, dc7d43db86aac6636724de8790eda555
0,          6,          6,        1,     3168, d3a9fc272424449ffc5b7e69f8f9948b
0,          7,          7,        1,     3168, 11ef33b9bccca54b3703bf24ab55e2d6
0,          8,          8,        1,     3168, ce31b8bf9b00b427ca956abb800d8034
0,          9,          9,        1,     3168, e707f824d6e95d482bf3a0b4d52ea069
